Coordinates
version=1
nRows=11
nColumns=36
inDegrees=yes

Units are S.I. units (second, meters, Newtons, ...)
If the header above contains a line with 'inDegrees', this indicates whether rotational values are in degrees (yes) or radians (no).

endheader
time	pelvis_tilt	pelvis_list	pelvis_rotation	pelvis_tx	pelvis_ty	pelvis_tz	hip_flexion_r	hip_adduction_r	hip_rotation_r	knee_angle_r	knee_angle_r_beta	ankle_angle_r	subtalar_angle_r	mtp_angle_r	hip_flexion_l	hip_adduction_l	hip_rotation_l	knee_angle_l	knee_angle_l_beta	ankle_angle_l	subtalar_angle_l	mtp_angle_l	lumbar_extension	lumbar_bending	lumbar_rotation	arm_flex_r	arm_add_r	arm_rot_r	elbow_flex_r	pro_sup_r	arm_flex_l	arm_add_l	arm_rot_l	elbow_flex_l	pro_sup_l
     44.43333330	     -1.02548675	      9.99760905	   -173.82874909	      0.58285326	      1.00330455	      0.84064190	      2.91935205	      9.93193530	     -6.08745407	     41.08226170	      0.71702073	     18.17214525	    -10.32862362	     -7.49999987	     31.37487376	     -9.08807294	      1.93626178	     15.66221186	      0.27335717	    -13.85531619	     -1.14495310	     -7.49999987	    -14.85811052	     11.31655721	      6.08398287	     24.92251271	    -17.05160022	     -1.90922730	     22.03363363	     81.77454470	      8.48113118	     -1.61960206	    -16.86529009	      8.05135329	     76.31725610
     44.45000000	     -0.72574030	      9.94502969	   -174.56776533	      0.57911752	      1.00015517	      0.84621017	      4.86263404	      8.95015801	     -5.90387326	     46.33883778	      0.80876529	     17.55003115	     -9.99763995	     -7.49999987	     31.79455026	     -9.05667175	      2.18508217	     18.09237660	      0.31577154	    -14.06679974	     -3.00114829	     -7.49999987	    -14.50931187	     11.37715228	      6.36160780	     25.09209503	    -17.12539677	     -1.80173614	     21.46993581	     81.95816118	      8.50199838	     -1.33757594	    -17.29270031	      8.30620174	     76.33200936
     44.46666670	     -1.26481934	      9.64632603	   -174.53949807	      0.57183722	      0.99758938	      0.85538552	      5.81905309	      7.58579493	     -5.98523722	     51.51545978	      0.89911439	     15.46696393	    -10.36334141	     -7.49999987	     31.19287347	     -8.53689570	      2.15282323	     20.85753782	      0.36403271	    -13.12737636	     -4.31948245	     -7.49999987	    -14.92201169	     11.58258507	      6.10946349	     24.98430372	    -17.23229465	     -1.84607731	     21.07602381	     81.96985398	      8.62221139	     -1.07158130	    -17.46261815	      8.50946501	     76.31875181
     44.48333330	     -1.48776825	      8.80179767	   -174.60030965	      0.56381443	      0.99712398	      0.86458514	      7.12624356	      5.47432900	     -5.74476114	     56.81506750	      0.99160999	     11.80382485	    -11.41230435	     -7.49999987	     30.46802509	     -7.48604691	      1.49447187	     23.48433521	      0.40987897	    -12.31336294	     -6.41553415	     -7.49999987	    -14.67493431	     11.12244130	      5.54001529	     24.92734132	    -16.99366436	     -2.08561141	     19.16451562	     82.19838615	      8.65703771	     -0.87060416	    -18.06072602	      8.11843605	     76.47317277
     44.50000000	     -1.90164523	      7.63740010	   -174.59702912	      0.55906600	      0.99819256	      0.87098613	      8.28070736	      3.04345600	     -5.30762595	     61.63596437	      1.07575052	      7.62617871	    -12.01997646	     -7.49999987	     29.32226971	     -6.16778816	      0.74607218	     25.87842461	      0.45166371	    -10.75654085	     -8.19769780	     -7.49999987	    -14.96666937	     10.37294299	      4.78623807	     24.18240754	    -16.65241457	     -2.21524790	     18.54903228	     82.23060937	      8.76394677	     -0.88610318	    -18.12411135	      8.37535451	     76.57259128
     44.51666670	     -2.27328095	      7.11696424	   -174.56266835	      0.55748653	      0.99985262	      0.87424836	      9.66456791	      1.44530679	     -4.83452896	     65.61778080	      1.14524632	      3.90284570	    -10.97587879	     -7.49999987	     28.26144265	     -5.48487625	      0.47344712	     27.87896235	      0.48657969	     -8.92517651	     -9.39428803	     -7.49999987	    -15.60299907	     10.33113001	      4.14365462	     23.39784237	    -16.49872222	     -2.31429661	     18.28688095	     82.17288407	      9.07778835	     -0.78078555	    -18.09350359	      8.97449447	     76.59442921
     44.53333330	     -1.77736828	      5.68289418	   -175.27053872	      0.55618754	      1.00249804	      0.87411853	     12.31147020	     -0.66073984	     -3.26766267	     69.55688267	      1.21399662	      0.37983912	    -10.94744646	     -7.49999987	     27.28178414	     -4.25155972	     -1.01709786	     28.41172662	      0.49587818	     -7.38046138	     -9.81517298	     -7.49999987	    -15.54616327	      8.70596281	      3.56318257	     22.56999448	    -15.68034879	     -2.76261376	     17.74136394	     82.11644628	      9.14568464	     -1.18939578	    -17.97238868	     10.02077529	     76.83116694
     44.55000000	     -1.38183316	      5.21932564	   -175.77109160	      0.55480186	      1.00646360	      0.87492479	     15.24991300	     -1.57675334	     -2.10503992	     73.37838850	      1.28069448	     -1.97659865	     -9.93540245	     -7.49999987	     26.29445183	     -3.89352443	     -2.16983266	     28.39765196	      0.49563253	     -5.80952535	     -9.39562507	     -7.49999987	    -15.67693395	      8.26581184	      3.22143866	     21.74752878	    -15.28361517	     -3.29996915	     17.65461656	     82.04259828	      9.20647105	     -1.24552364	    -17.76840650	     11.44297937	     77.12804656
     44.56666670	     -1.13197832	      5.00669395	   -176.10324257	      0.55329445	      1.01047165	      0.87651748	     18.14226050	     -2.02827250	     -1.22220526	     76.74255528	      1.33941027	     -4.09225976	     -9.59251695	     -7.49999987	     25.23656792	     -3.73597729	     -3.28627456	     27.99731723	      0.48864537	     -4.45059863	     -8.72412485	     -7.49999987	    -15.86514963	      8.03069305	      2.96356305	     20.78682011	    -14.94231152	     -3.84667417	     17.75393231	     81.98272161	      9.31903431	     -1.29494045	    -17.48204465	     12.89284851	     77.48427201
     44.58333330	     -1.09141717	      4.89711215	   -176.34191307	      0.55256275	      1.01587857	      0.87795580	     20.64660456	     -2.16146068	     -0.44840704	     78.77859235	      1.37494582	     -5.61436817	     -9.82414252	     -7.49999987	     24.14308160	     -3.67950994	     -4.27467630	     27.60926666	      0.48187261	     -3.34892521	     -8.07093207	     -7.49999987	    -16.26761504	      7.80610278	      3.47737239	     19.01906075	    -14.46757857	     -8.76428670	     18.93121535	     85.40429348	      9.88245609	     -1.35267173	    -16.79499434	     14.17168060	     83.06174692
     44.60000000	     -1.34407300	      4.65443610	   -176.49203948	      0.55290761	      1.02290823	      0.87847598	     22.33877965	     -2.19371584	      0.42867981	     78.64463685	      1.37260785	     -6.81864516	    -10.54701560	     -7.49999987	     22.86297984	     -3.50826022	     -4.94659302	     27.44608147	      0.47902449	     -2.48565155	     -7.52867724	     -7.49999987	    -16.91902973	      7.43422194	      3.20960578	     18.31799500	    -13.93316104	     -8.57981312	     18.46838266	     84.57013648	     10.48922670	     -1.71479953	    -15.28729834	     15.17142872	     82.67955000
